<?xml version="1.0" encoding="UTF-8"?>
<svg id="_編集モード" data-name="編集モード" xmlns="http://www.w3.org/2000/svg" width="1038" height="1151.69" viewBox="0 0 1038 1151.69">
  <defs>
    <style>
      .cls-1 {
        fill: #fff;
      }

      .cls-2 {
        fill: #b70000;
      }

      .cls-3 {
        fill: #282828;
      }
    </style>
  </defs>
  <path class="cls-3" d="m1029.54,260.23L777.78,8.47c-5.55-5.4-12.99-8.47-20.73-8.47H155.74c-16.2,0-29.19,12.99-29.19,29.19v668.47l58.38-16.66V58.38h542.97v222.52c0,16.12,13.07,29.19,29.19,29.19h222.54v783.22H184.93v-459.01h-58.38v488.2c0,16.2,12.99,29.19,29.19,29.19h853.07c16.2,0,29.19-12.99,29.19-29.19V280.95c0-7.73-3.06-15.18-8.46-20.72Zm-243.26-160.54l152.1,152.01h-152.1V99.69Z"/>
  <rect class="cls-2" y="540.93" width="827.3" height="437.15" rx="15" ry="15"/>
  <g>
    <path class="cls-1" d="m134.29,873c-13.59,0-20.38-6.99-20.38-21.01v-185.29c0-13.79,6.9-20.69,20.7-20.69h76.72c24.62,0,43.61,6.17,56.99,18.47,13.37,12.3,20.06,29.49,20.06,51.58s-6.69,39.31-20.06,51.73c-13.37,12.42-32.37,18.62-56.99,18.62h-56.67v65.58c0,14.02-6.79,21.01-20.37,21.01Zm20.37-118.74h50.31c29.29,0,43.93-12.74,43.93-38.2s-14.65-37.9-43.93-37.9h-50.31v76.1Z"/>
    <path class="cls-1" d="m343.14,870.46c-14.44,0-21.65-7.22-21.65-21.64v-181.16c0-14.42,7.22-21.64,21.65-21.64h61.76c37.56,0,66.58,9.67,87.07,28.98,20.48,19.31,30.72,47.01,30.72,83.09s-10.24,63.57-30.72,83.09c-20.49,19.52-49.51,29.28-87.07,29.28h-61.76Zm19.1-33.75h40.11c51.79,0,77.68-26.21,77.68-78.62s-25.9-78.32-77.68-78.32h-40.11v156.94Z"/>
    <path class="cls-1" d="m585.09,873c-14.01,0-21.01-7.2-21.01-21.64v-183.7c0-14.42,7.22-21.64,21.65-21.64h111.11c11.03,0,16.55,5.31,16.55,15.91s-5.52,16.56-16.55,16.56h-92.01v63.36h85.32c11.03,0,16.55,5.31,16.55,15.91s-5.52,16.56-16.55,16.56h-85.32v77.04c0,14.44-6.58,21.64-19.74,21.64Z"/>
  </g>
</svg>