<?xml version="1.0" encoding="UTF-8"?>
<svg id="_レイヤー_1" data-name="レイヤー 1" xmlns="http://www.w3.org/2000/svg" width="210.55" height="35.4" viewBox="0 0 210.55 35.4">
  <defs>
    <style>
      .cls-1 {
        fill: #fff;
      }
    </style>
  </defs>
  <path class="cls-1" d="m19.15,11.15c-.65-3.25-2.55-5.25-5.95-5.25-4.05,0-6.2,2.75-6.2,9.35v4.9c0,6.4,2.15,9.35,6.2,9.35,3.5,0,5.2-1.75,5.95-5.25h6.65c-1.15,7.75-5.5,11.15-12.6,11.15-7.75,0-13.2-4.7-13.2-15.25v-4.9C0,4.6,5.45,0,13.2,0c6.85,0,11.5,3.6,12.65,11.15h-6.7Z"/>
  <path class="cls-1" d="m43.9,35.4c-7.75,0-13.2-4.7-13.2-15.25v-4.9c0-10.65,5.45-15.25,13.2-15.25s13.25,4.6,13.25,15.25v4.9c0,10.55-5.45,15.25-13.25,15.25Zm-6.2-15.25c0,6.6,2.15,9.35,6.2,9.35s6.25-2.75,6.25-9.35v-4.9c0-6.6-2.2-9.35-6.25-9.35s-6.2,2.75-6.2,9.35v4.9Z"/>
  <path class="cls-1" d="m89.85.45v34.5h-5.85l-13.45-21.35v21.35h-6.65V.45h5.8l13.5,21.65V.45h6.65Z"/>
  <path class="cls-1" d="m120.7.45v5.95h-9.5v28.55h-7V6.4h-9.5V.45h26Z"/>
  <path class="cls-1" d="m121.9,34.95L133.9.45h6.7l12,34.5h-7.45l-2.1-6.55h-11.55l-2.1,6.55h-7.5Zm11.45-12.45h7.8l-3.9-12.15-3.9,12.15Z"/>
  <path class="cls-1" d="m174.95,11.15c-.65-3.25-2.55-5.25-5.95-5.25-4.05,0-6.2,2.75-6.2,9.35v4.9c0,6.4,2.15,9.35,6.2,9.35,3.5,0,5.2-1.75,5.95-5.25h6.65c-1.15,7.75-5.5,11.15-12.6,11.15-7.75,0-13.2-4.7-13.2-15.25v-4.9c0-10.65,5.45-15.25,13.2-15.25,6.85,0,11.5,3.6,12.65,11.15h-6.7Z"/>
  <path class="cls-1" d="m210.55.45v5.95h-9.5v28.55h-7V6.4h-9.5V.45h26Z"/>
</svg>