<?xml version="1.0" encoding="UTF-8"?>
<svg id="_レイヤー_1" data-name="レイヤー 1" xmlns="http://www.w3.org/2000/svg" width="84.58mm" height="7.17mm" viewBox="0 0 239.75 20.33">
  <defs>
    <style>
      .cls-1 {
        fill: #fff;
      }

      .cls-2 {
        fill: none;
        stroke: #034ea2;
        stroke-width: .22px;
      }

      .cls-3 {
        fill: #034ea2;
      }

      .cls-4 {
        fill: #231f20;
      }
    </style>
  </defs>
  <path class="cls-4" d="m146.49,18.95l3.11-16.39c-.21-.49-.64-.79-.93-.79h-1.58c-.37,0-.7.29-1.09.74l-3.34,17.34"/>
  <path class="cls-4" d="m66.05,11.43c.51,0,.92-.41.92-.92s-.41-.92-.92-.92h-15.32c-.51,0-.92.41-.92.92s.41.92.92.92h15.32"/>
  <path class="cls-4" d="m92.35,4.46c.51,0,.92-.41.92-.92s-.41-.92-.92-.92h-5.32c-.51,0-.92.41-.92.92s.41.92.92.92h5.32"/>
  <path class="cls-4" d="m100.19,7.31c.51,0,.92-.41.92-.92s-.41-.92-.92-.92h-5.31c-.51,0-.92.41-.92.92s.41.92.92.92h5.31"/>
  <path class="cls-4" d="m133.4,13.14c.51,0,.92-.41.92-.92s-.41-.92-.92-.92h-7.38c-.51,0-.92.41-.92.92s.41.92.92.92h7.38"/>
  <path class="cls-4" d="m129.92,1.73c.22-.46.03-1.01-.43-1.23-.46-.22-1.01-.03-1.23.43l-1.74,3.67c-.22.46-.03,1.01.43,1.23.46.22,1.01.03,1.23-.43l1.74-3.67"/>
  <path class="cls-4" d="m131.4,8.27c.22-.46.03-1.01-.43-1.23-.46-.22-1.01-.03-1.23.43l-.75,1.53c-.22.46-.03,1.01.43,1.23.46.22,1.01.03,1.23-.43l.75-1.53"/>
  <path class="cls-4" d="m136.77,12.36c.22-.46.03-1.01-.43-1.23-.46-.22-1.01-.03-1.23.43l-.26.55c-.22.46-.03,1.01.43,1.23.46.22,1.01.03,1.23-.43l.26-.55"/>
  <path class="cls-4" d="m130.29,5.26c.22-.46.03-1.01-.43-1.23-.46-.22-1.01-.03-1.23.43l-2.16,4.54c-.22.46-.03,1.01.43,1.23.46.22,1.01.03,1.23-.43l2.16-4.54"/>
  <path class="cls-4" d="m171.26,5.77c.51,0,.92-.41.92-.92s-.41-.92-.92-.92h-14.57c-.51,0-.92.41-.92.92s.41.92.92.92h14.57"/>
  <path class="cls-4" d="m154.33,2.52c.51,0,.92-.41.92-.92s-.41-.92-.92-.92h-12.73c-.51,0-.92.41-.92.92s.41.92.92.92h12.73"/>
  <path class="cls-4" d="m151.8,20.13c.51,0,.92-.41.92-.92s-.41-.92-.92-.92h-14.35c-.51,0-.92.41-.92.92s.41.92.92.92h14.35"/>
  <path class="cls-4" d="m125.31,6.1c.51,0,.92-.41.92-.92s-.41-.92-.92-.92h-3.71c-.51,0-.92.41-.92.92s.41.92.92.92h3.71"/>
  <path class="cls-4" d="m129.84,10.33c.51,0,.92-.41.92-.92s-.41-.92-.92-.92h-2.52c-.51,0-.92.41-.92.92s.41.92.92.92h2.52"/>
  <path class="cls-4" d="m123.82,10.5c.16.49.68.75,1.16.6.49-.16.75-.68.6-1.16l-1.09-3.52c-.16-.49-.67-.75-1.16-.6-.48.16-.75.67-.6,1.16l1.09,3.52"/>
  <path class="cls-4" d="m159.83,8.62c.22.46.77.66,1.23.44.46-.22.66-.77.44-1.23l-1.29-2.74c-.22-.46-.77-.66-1.23-.44-.46.22-.66.77-.44,1.23l1.29,2.74"/>
  <path class="cls-4" d="m159.06,3.07c.22.46.77.66,1.23.44.46-.22.66-.77.44-1.23l-.7-1.48c-.22-.46-.76-.66-1.23-.44-.46.22-.66.77-.44,1.23l.7,1.48"/>
  <path class="cls-4" d="m170.27,3.08c-.22.46-.77.66-1.23.44-.46-.22-.66-.77-.44-1.23l.7-1.48c.22-.46.77-.66,1.23-.44.46.22.66.77.44,1.23l-.7,1.48"/>
  <path class="cls-4" d="m167,8.66c-.22.46-.77.66-1.23.44-.46-.22-.66-.77-.44-1.23l1.29-2.74c.22-.46.77-.66,1.23-.44.46.22.66.77.44,1.23l-1.29,2.74"/>
  <path class="cls-4" d="m127.51,16.61c.48.38,1.17.31,1.56-.17.38-.48.31-1.17-.17-1.56l-1.27-1.03c-.48-.38-1.17-.31-1.56.17-.38.48-.31,1.18.17,1.56l1.27,1.03"/>
  <rect class="cls-4" x="93.56" y="8.47" width="2.46" height="1.85"/>
  <rect class="cls-4" x="93.08" y="12.13" width="2.46" height="1.85"/>
  <rect class="cls-4" x="92.35" y="15.8" width="2.46" height="1.85"/>
  <path class="cls-4" d="m91.03,1.43c.09-.5-.23-.98-.73-1.08-.5-.1-.98.23-1.08.73l-3.33,18.04c-.09.5.23.98.73,1.08.5.1.98-.23,1.08-.73l3.33-18.04"/>
  <path class="cls-4" d="m125.39,1.4c.1-.5-.23-.98-.73-1.08-.5-.1-.98.23-1.08.73l-3.33,18.04c-.09.5.23.98.73,1.08.5.1.99-.23,1.08-.73l3.33-18.03"/>
  <path class="cls-4" d="m97.51,20.17c1.98,0,2.4-1.7,2.62-2.68l1.46-7.93c.09-.5-.23-.98-.74-1.08-.5-.1-.98.23-1.08.73l-1.26,7.15c-.07.37-.17.74-.49.87-.26.1-.65.31-.68.56l-.34,1.87c-.05.35.13.55.5.51"/>
  <path class="cls-4" d="m123.14,5.13c-.73,3.18-1.86,4.59-2.94,5.5-.22.18-.64.34-.71.73l-.41,2.21c-.05.35.22.55.7.37,1.95-.88,2.92-3.48,3.51-5.43"/>
  <path class="cls-4" d="m126.31,12.36c-.54,2-.88,2.2-2.04,3.13-.22.17-.64.34-.71.73l-.41,2.21c-.05.35.22.55.7.36,1.95-.88,3.59-4.05,4.17-6"/>
  <path class="cls-4" d="m90.39,20.17c1.98,0,2.41-1.7,2.62-2.68l1.46-7.93c.09-.5-.24-.98-.74-1.08-.5-.1-.98.23-1.08.73l-1.26,7.15c-.07.37-.17.74-.49.87-.26.1-.65.31-.68.56l-.34,1.87c-.05.35.13.55.5.51"/>
  <path class="cls-4" d="m99.27,9.55c.09-.5-.23-.98-.74-1.08-.5-.09-.98.24-1.08.74l-.9,5.03c-.1.5.23.98.73,1.08.5.1.98-.23,1.08-.73l.9-5.03"/>
  <path class="cls-4" d="m96.96,9.55c.1-.5-.23-.98-.73-1.08-.5-.09-.98.24-1.08.74l-1.81,9.88c-.1.5.23.99.73,1.08.5.1.98-.23,1.08-.74l1.81-9.89"/>
  <path class="cls-4" d="m90,16.9c.51,0,.92-.41.92-.92s-.41-.92-.92-.92h-5.31c-.51,0-.92.41-.92.92s.41.92.92.92h5.31"/>
  <path class="cls-4" d="m67.7,6.22l.24-1.1c.4-1.99-.92-2.82-2.11-2.82h-11.93c-2.24.07-2.64.92-3.03,2.37l-.27,1.62c-.07.33.29.66.62.66h1.58c.51.04.68-.27.74-.57l.28-1.32c.13-.66.59-.92,1.25-.92h8.98c.76.02.99.52.82,1.11l-.2.97c-.04.44.22.73.7.73h1.61c.44,0,.66-.29.73-.73"/>
  <path class="cls-4" d="m58.34,2.6l.28-1.55c.04-.18.29-.66.73-.66h1.54c.44,0,.81.29.73.73l-.28,1.45"/>
  <path class="cls-4" d="m56.55,11.19l-2.25,5.03c-.2.4-.46.73-1.38.66h-1.94c-.72,0-.76-.92-.34-1.44l3.37-4.1"/>
  <path class="cls-4" d="m56.45,19.69c3.19-.08,6.45.27,7.03-2.66l1.59-8.47c.09-.49-.34-.79-.64-.79h-1.57c-.37,0-.7.29-.77.74l-1.2,6.3c-.24,1.17-1,1.16-3.75,1.16-.33,0-.84.15-.92.51l-.48,2.49c-.07.37.22.73.7.72"/>
  <path class="cls-4" d="m70.81,5.1c2.78-.44,4.5-1.87,4.97-4.21.09-.44-.23-.72-.68-.34-.88.73-2.71,1.43-3.81,1.7-.5.12-.84.37-.91.84l-.26,1.46c-.04.33.14.64.7.55"/>
  <path class="cls-4" d="m94.07,5.01c1.61-.15,3.74-2.2,4.43-3.96.17-.42-.23-.72-.68-.34-.88.73-2.17,1.17-3.27,1.44-.5.12-.84.37-.92.84l-.26,1.46c-.04.33.14.6.7.55"/>
  <path class="cls-4" d="m69.01,11.15c4.51-.62,7.8-5.04,8.94-7.14.26-.48-.38-.76-.66-.44-2.02,2.31-5.09,3.92-7.73,4.47-.5.1-.84.37-.91.84l-.33,1.72c-.04.33.14.63.7.55"/>
  <path class="cls-4" d="m80.85.67c-.44-.59-1.04-.34-.84.4.37,1.35,2.5,3.55,3.92,4.06.4.15.77.04.84-.29l.29-1.5c.07-.29-.04-.73-.55-.8-.73-.11-2.83-.76-3.66-1.87"/>
  <path class="cls-4" d="m97.99,1.13c.37,1.36,2.21,3.68,3.63,4.19.4.15.77.04.84-.29l.29-1.5c.07-.29-.04-.73-.55-.81-.73-.1-2.9-.96-3.73-2.07"/>
  <path class="cls-4" d="m78.02,3.82c-.21-.7-.87-.31-.73.44.44,2.49,3.48,6.45,5.46,7.03.41.12.77.04.84-.29l.4-1.98c.07-.29-.04-.69-.55-.81-2.23-.51-4.84-2.49-5.42-4.39"/>
  <path class="cls-4" d="m207.88,7.94c4.51-.62,7.8-5.04,8.94-7.14.26-.48-.38-.76-.66-.44-2.02,2.31-5.09,3.92-7.73,4.47-.51.11-.84.37-.91.84l-.33,1.72c-.04.33.14.63.7.55"/>
  <path class="cls-4" d="m216.89.62c-.22-.7-.87-.32-.73.44.44,2.49,3.91,6.61,5.89,7.2.41.12.77.04.84-.29l.4-1.98c.07-.29-.04-.69-.55-.81-2.23-.51-5.27-2.66-5.85-4.56"/>
  <path class="cls-4" d="m73.41,11.68h6.15c1.76,0,3,1.54,2.78,2.71l-.66,3.37c-.29,1.58-1.72,2.42-3.08,2.42h-7.14c-1.61-.04-2.64-1.76-2.38-3.04l.62-3.11c.33-1.43,1.94-2.34,3.7-2.34l.29,1.87c-.62,0-.95.37-1.03.73l-.59,3.26c-.04.51.26.77.7.77h5.09c.44,0,.73-.29.81-.59l.62-3.33c.11-.48-.33-.84-.84-.84h-4.76"/>
  <path class="cls-4" d="m87.66,5.6h3.37c1.14,0,1.68.91,1.54,1.87l-.77,3.92c-.18.88-.84,1.87-2.16,1.87h-3.44c-1.1,0-1.72-1.1-1.58-1.87l.73-3.88c.15-.77.99-1.9,2.31-1.9l.33,1.87c-.62.04-.81.51-.92,1.1l-.37,1.87c-.07.4-.04.95.59.95h1.9c.73,0,.84-.48.95-.95l.37-1.87c.11-.62.07-1.06-.62-1.1h-1.91"/>
  <rect class="cls-4" x="86.52" y="8.53" width="4.32" height="1.87"/>
  <rect class="cls-4" x="127.29" y="3.9" width="2.2" height="2.01"/>
  <path class="cls-4" d="m136.95,1.75c.22-.46.03-1.01-.43-1.23-.46-.22-1.01-.03-1.23.43l-1.74,3.67c-.22.46-.03,1.01.43,1.23.46.22,1.01.03,1.23-.43l1.74-3.67"/>
  <path class="cls-4" d="m138.44,8.29c.22-.46.03-1.01-.43-1.23-.46-.22-1.01-.03-1.23.43l-.75,1.53c-.22.46-.03,1.01.43,1.23.46.22,1.01.03,1.23-.43l.75-1.53"/>
  <path class="cls-4" d="m137.33,5.28c.22-.46.03-1.01-.43-1.23-.46-.22-1.01-.03-1.23.43l-2.16,4.54c-.22.46-.03,1.01.43,1.23.46.22,1.01.03,1.23-.43l2.16-4.54"/>
  <path class="cls-4" d="m136.88,10.34c.51,0,.92-.41.92-.92s-.41-.92-.92-.92h-2.52c-.51,0-.92.41-.92.92s.41.92.92.92h2.52"/>
  <rect class="cls-4" x="134.32" y="3.92" width="2.2" height="2.01"/>
  <path class="cls-4" d="m129.96,19.94c1.68-1.06,4.61-3.22,5.2-5.79.13-.58-.48-.92-.92-.22-.79,1.26-4.25,3.59-6.78,4.4-.63.2-.84.7-.18,1.02l1.28.59c.4.26,1.06.21,1.39,0"/>
  <path class="cls-4" d="m191.24,19.27c1.89-.63,5.25-2.04,6.42-4.39.26-.53-.25-1-.84-.43-1.07,1.03-4.98,2.48-7.62,2.67-.66.05-.98.48-.42.95l1.11.87c.33.35.98.45,1.35.33"/>
  <path class="cls-4" d="m216.29,15.29c1.12,1.12,1.97,2.1,3.36,4.36.34.56.88.65,1.04-.07l.44-2c.15-.45-.1-1.04-.33-1.35-.89-1.24-1.51-1.99-2.74-2.61-.39-.19-.78-.1-.93.05l-.73.83c-.2.2-.24.64-.1.78"/>
  <path class="cls-4" d="m159.98,14.45c-.79,1.25-3.52,3.03-6.05,3.84-.63.2-.84.7-.18,1.03l1.28.59c.4.26,1.06.21,1.39,0,1.68-1.06,4.15-2.79,4.73-5.35"/>
  <path class="cls-4" d="m162.71,14.46c.79,1.26,3.52,3.04,6.05,3.84.63.2.84.7.18,1.03l-1.28.59c-.4.26-1.06.21-1.39,0-1.68-1.06-4.15-2.79-4.73-5.35"/>
  <path class="cls-4" d="m133.49,1.18c.1-1.03-.98-1.03-1.12-.1-1.56,9.87-1.28,17.35,2.34,18.9.68.29.93-.05,1.03-.44l.39-2c.05-.25.05-.64-.39-.78-2.54-.85-3.17-5.85-2.25-15.58"/>
  <path class="cls-4" d="m169.06,9.67c.51,0,.92-.41.92-.92s-.41-.92-.92-.92h-11.59c-.51,0-.92.41-.92.92s.41.92.92.92h11.59"/>
  <path class="cls-4" d="m167.91,15.82c.51,0,.92-.41.92-.92s-.41-.92-.92-.92h-11.59c-.51,0-.92.41-.92.92s.41.92.92.92h11.59"/>
  <path class="cls-4" d="m167.79,12.79c.51,0,.92-.41.92-.92s-.41-.92-.92-.92h-10.26c-.51,0-.92.41-.92.92s.41.92.92.92h10.26"/>
  <path class="cls-4" d="m221.39,11.97c.51,0,.92-.41.92-.92s-.41-.92-.92-.92h-13.92c-.51,0-.92.42-.92.92s.41.92.92.92h13.92"/>
  <path class="cls-4" d="m219.05,8.88c.51,0,.92-.41.92-.92s-.41-.92-.92-.92h-7.99c-.51,0-.92.41-.92.92s.41.92.92.92h7.99"/>
  <path class="cls-4" d="m161.7,8.9l-1.98,10.39c-.09.49.34.79.64.79h1.58c.37,0,.7-.29.77-.74l1.9-10.22"/>
  <path class="cls-4" d="m163.88,1.37c.09-.5-.24-.98-.74-1.08-.5-.1-.98.23-1.08.73l-.61,3.38c-.1.5.23.98.73,1.08.5.1.98-.23,1.08-.73l.61-3.38"/>
  <path class="cls-4" d="m167.66,1.38c.1-.5-.23-.98-.73-1.08-.5-.1-.98.23-1.08.73l-.61,3.38c-.09.5.23.98.74,1.08.5.09.98-.24,1.08-.74l.61-3.38"/>
  <path class="cls-4" d="m194.28,10.95c.09-.5-.23-.98-.74-1.08-.5-.1-.98.23-1.08.73l-1.17,6.45c-.09.5.23.98.73,1.08.5.1.98-.23,1.08-.73l1.17-6.45"/>
  <path class="cls-4" d="m208.24,20.14c1.98-.23,9.12-1.09,11.32-2.55.49-.33.04-2.13-.66-1.69-1.26.79-9.8,1.57-12.43,1.2-.65-.09-1.06.26-.61.85l1.12,1.6c.25.4.87.64,1.26.6"/>
  <path class="cls-4" d="m207.45,17.34c1.95-1.92,4-4.22,5.8-6.13.41-.43,1.45-.4,1.14.37-.51,1.24-2.12,3.96-3.32,6.45"/>
  <path class="cls-4" d="m203.76,6.92c.51,0,.92-.41.92-.92s-.41-.92-.92-.92h-12.17c-.51,0-.92.41-.92.92s.41.92.92.92h12.17"/>
  <path class="cls-4" d="m196.07,11.47c.51,0,.92-.41.92-.92s-.41-.92-.92-.92h-4.89c-.51,0-.92.41-.92.92s.41.92.92.92h4.89"/>
  <path class="cls-4" d="m201.7.92c.17-1.02-1.15-1.19-1.42-.29-2.54,8.5-1.76,17.68,2.97,19.41.7.26.93-.05,1.02-.44l.6-3.44c.05-.24.05-.83-.49-1.07-2.79-1.27-4.3-4.54-2.69-14.16"/>
  <path class="cls-4" d="m205.76,4.06c-.22.46-.77.66-1.23.44-.46-.22-.66-.77-.44-1.23l1.29-2.74c.22-.46.77-.66,1.23-.45.46.22.66.77.44,1.23l-1.29,2.74"/>
  <path class="cls-1" d="m40.79,14.68h3.03l-7,5.51-6.94-5.51h3.03l-25.54-.02c-2.26,0-4.02-1.54-4.02-3.64v-5.23H.32L7.26.28l7,5.51h-3.03,25.51c2.26.01,4.02,1.56,4.02,3.65l.03,5.24"/>
  <path class="cls-2" d="m40.79,14.68h3.03l-7,5.51-6.94-5.51h3.03l-25.54-.02c-2.26,0-4.02-1.54-4.02-3.64v-5.23H.32L7.26.28l7,5.51h-3.03,25.51c2.26.01,4.02,1.56,4.02,3.65l.03,5.24Z"/>
  <path class="cls-3" d="m40.09,15.32h1.62l-4.93,3.91-4.9-3.91h1.63v-1.32l-25.49.05c-2.7,0-4.02-1.37-4.02-3.64v-5.28h-1.6L7.29,1.29l4.95,3.84h-1.62v1.33s25.73,0,25.73,0c2.81,0,3.76,1.76,3.76,3.97v4.9"/>
  <polyline class="cls-1" points="9.19 8.55 10.78 11.58 13.81 9.01 13.02 12.49 12.68 12.9 15.33 12.9 15.19 12.49 16.29 7.64 16.62 7.22 13.98 7.22 14.06 7.91 11.97 9.65 10.7 7.22 8.58 7.22 8.72 7.61 7.62 12.51 7.28 12.9 8.47 12.9 8.33 12.49 9.19 8.55"/>
  <path class="cls-1" d="m17.42,12.63c.17,0,.31-.14.31-.31s-.14-.31-.31-.31-.31.14-.31.31.14.31.31.31"/>
  <path class="cls-1" d="m24.11,12.64c.17,0,.31-.14.31-.31s-.14-.31-.31-.31-.31.14-.31.31.14.31.31.31"/>
  <polyline class="cls-1" points="22.68 7.88 24.67 7.88 25.08 8.33 25.33 7.22 18.17 7.25 17.92 8.33 18.55 7.88 20.53 7.88 19.49 12.49 19.16 12.9 21.86 12.9 21.66 12.49 22.68 7.88"/>
  <polyline class="cls-1" points="26.87 7.22 27.23 7.88 26.24 12.49 25.88 12.9 34.03 12.9 34.23 12.07 33.62 12.49 28.39 12.49 28.83 10.42 31.25 10.42 31.66 10.97 31.94 9.76 28.99 9.76 29.43 7.88 34.39 7.88 35.74 8.35 34.36 7.22 26.87 7.22"/>
  <path class="cls-4" d="m117.84,10.72c.51,0,.92-.41.92-.92,0-.51-.41-.92-.92-.92h-8.76c-.51.01-.92.43-.92.94s.41.92.92.92h8.76"/>
  <path class="cls-4" d="m118.87,5.49c.51,0,.92-.41.92-.92,0-.51-.41-.92-.92-.92h-8.76c-.51.01-.92.42-.92.93s.41.92.92.92h8.76"/>
  <path class="cls-4" d="m112.18,4.48c.22.46.77.66,1.23.44.46-.21.66-.77.44-1.23l-1.29-2.74c-.22-.46-.77-.66-1.23-.44-.46.22-.66.77-.44,1.23l1.29,2.74"/>
  <path class="cls-4" d="m116.81,4.47c-.22.46-.77.66-1.23.44-.46-.22-.66-.76-.44-1.23l1.29-2.74c.22-.46.77-.66,1.23-.44.46.22.66.77.44,1.23l-1.29,2.74"/>
  <path class="cls-4" d="m105.25,11.36c.51,0,.92-.41.92-.92s-.41-.92-.92-.92h-2.2c-.51,0-.92.42-.92.93s.41.92.92.92h2.2"/>
  <path class="cls-4" d="m105.98,3.82c.44.42,1.14.41,1.56-.03.42-.44.41-1.14-.03-1.57l-1.57-1.5c-.44-.42-1.14-.41-1.57.03-.42.44-.41,1.14.03,1.57l1.57,1.5"/>
  <path class="cls-4" d="m105.64,8.27c.55.27,1.21.05,1.49-.49.27-.55.05-1.21-.49-1.49l-2-1.02c-.55-.27-1.21-.05-1.49.49-.27.55-.05,1.21.49,1.49l2.01,1.01"/>
  <path class="cls-4" d="m114.78,10.28c.77,2.49,2.29,3,2.61,3.12.26.1.68.45.65.86l-.32,1.56c.05.35-.34.49-.7.46-1.54-.36-3.87-3.65-4.24-5.48"/>
  <path class="cls-4" d="m104.42,11.12c-.78,3.86-1.76,5.28-2.83,5.96-.24.15-.64.34-.71.73l-.34,1.87c-.05.36.14.55.5.51,3.19.01,4.79-5.75,5.14-9.75"/>
  <path class="cls-4" d="m113.49,5.24c-.78,4.44-3.08,7.18-4.43,7.97-.24.14-.63.34-.71.73l-.34,1.87c-.05.36.13.55.5.51,3.95-.04,6.44-8.1,7.13-11.13"/>
  <path class="cls-4" d="m105.69,13.26c-.78,4.88,6.96,3.89,11.89,3.89.49,0,.68.14.64.59l-.29,1.76c-.1.44-.49.63-1.03.63-3.27,0-12.38.56-12.62-4.23"/>
  <path class="cls-4" d="m230.06,7.26c.51,0,.92-.41.92-.92s-.41-.92-.92-.92h-4.64c-.51,0-.92.41-.92.92s.41.92.92.92h4.64"/>
  <path class="cls-4" d="m238.83,8.99c.51,0,.92-.41.92-.92s-.41-.92-.92-.92h-5.67c-.51,0-.92.41-.92.92s.41.92.92.92h5.67"/>
  <path class="cls-4" d="m237.25,19.7c.51,0,.92-.41.92-.92s-.41-.92-.92-.92h-6.59c-.51,0-.92.41-.92.92s.41.92.92.92h6.59"/>
  <path class="cls-4" d="m230.07,2.52c.61,0,1.1-.51,1.09-1.12,0-.61-.51-1.1-1.12-1.09l-2.25.02c-.61,0-1.1.51-1.09,1.12,0,.61.51,1.1,1.12,1.09l2.25-.02"/>
  <path class="cls-4" d="m235.47,18.63l3.33-17.46c.08-.49-.34-.79-.64-.79h-1.57c-.37,0-.7.29-.77.74l-3.24,17.29"/>
  <path class="cls-4" d="m227.27,7.57c.77,1.72,2.45,2.45,2.77,2.57.26.1.68.45.65.86l-.48,2.16c.05.35-.34.49-.7.46-1.54-.37-2.53-2.42-2.9-4.25"/>
  <path class="cls-4" d="m227.95,8.53c-1.68,1.99-3.84,2.81-4.42,2.99-.27.08-.81.15-.93.53l-.41,2.17c-.18.31.12.59.47.7,2.1-.09,4.18-3.13,5.11-4.73"/>
  <path class="cls-4" d="m225.44,20.07c.66.12,1.29-.31,1.41-.96l2.25-11.92c.12-.66-.31-1.29-.96-1.41-.66-.12-1.29.31-1.41.96l-2.26,11.92c-.12.66.31,1.29.97,1.41"/>
  <path class="cls-4" d="m178.2,6.06c.51,0,.92-.41.92-.92,0-.51-.42-.92-.92-.92l-4.33.04c-.51,0-.92.42-.92.92,0,.51.42.92.93.92l4.33-.04"/>
  <path class="cls-4" d="m176.78,10.43c.16.49.68.75,1.16.6.49-.16.75-.68.6-1.16l-1.1-3.52c-.16-.49-.67-.75-1.16-.59-.48.16-.75.68-.6,1.16l1.09,3.52"/>
  <path class="cls-4" d="m175.4,5.13c-.73,3.18-1.85,4.59-2.93,5.5-.21.18-.63.34-.71.73l-.41,2.21c-.05.35.22.55.7.37,1.95-.88,2.91-3.49,3.49-5.44"/>
  <path class="cls-4" d="m188.45,5.88c.51,0,.92-.41.92-.92,0-.51-.41-.92-.92-.92h-6.63c-.51.01-.92.43-.92.93,0,.51.41.92.92.92h6.63"/>
  <path class="cls-4" d="m187.45,11.23c.51,0,.92-.41.92-.93,0-.51-.41-.92-.93-.92h-7.58c-.51.01-.92.43-.92.94,0,.51.42.92.93.92h7.58"/>
  <path class="cls-4" d="m184.44,10.75c.77,1.72,3.03,2.68,3.35,2.8.26.1.68.45.65.85l-.47,2.16c.05.35-.34.49-.7.46-1.54-.36-2.78-2.55-3.15-4.38"/>
  <path class="cls-4" d="m183.72,10.9c-1.77,1.92-3.95,2.64-4.54,2.8-.27.07-.81.11-.95.49l-.5,2.15c-.2.3.09.59.44.72,2.1,0,4.31-2.95,5.3-4.51"/>
  <path class="cls-4" d="m183.64,1.13c-.34,4-1.6,6.94-4.09,7.01-.37.04-.55-.16-.5-.51l.34-1.87c.07-.39.47-.58.71-.73,1.07-.69,1.14-.85,2.17-3.84.39-1.12,1.37-1.13,1.37-.05"/>
  <path class="cls-4" d="m173.45,20.22c.66.12,1.29-.31,1.41-.97l3.29-17.58c.12-.66-.31-1.29-.97-1.41-.66-.12-1.29.31-1.41.97l-3.29,17.58c-.12.66.31,1.29.97,1.41"/>
  <path class="cls-4" d="m182.14,20.23c.66.12,1.29-.31,1.41-.97l3.29-17.58c.12-.66-.31-1.29-.97-1.41-.66-.12-1.29.31-1.41.97l-3.29,17.58c-.12.66.31,1.29.97,1.41"/>
</svg>